<svg width="720" height="720" xmlns="http://www.w3.org/2000/svg" xmlns:xlink="http://www.w3.org/1999/xlink" xml:space="preserve" overflow="hidden"><defs><clipPath id="clip0"><rect x="280" y="0" width="720" height="720"/></clipPath></defs><g clip-path="url(#clip0)" transform="translate(-280 0)"><path d="M991.207 8.78679C1002.92 20.5025 1002.92 39.4974 991.207 51.2133L849.664 192.756C849.409 193.02 849.151 193.278 848.887 193.531L472.848 569.571C472.594 569.835 472.336 570.093 472.075 570.345L331.206 711.213C319.49 722.928 300.495 722.928 288.779 711.213 277.064 699.498 277.064 680.502 288.779 668.787L407.023 550.542C367.485 514.218 338.246 473.565 318.189 440.397 306.022 420.276 297.066 402.63 291.111 389.913 288.13 383.55 285.892 378.399 284.372 374.766 283.611 372.951 283.029 371.514 282.623 370.491L282.145 369.273 282.004 368.907 281.958 368.784 281.941 368.739C281.941 368.739 281.928 368.706 309.995 358.113L282.219 346.779 282.231 346.749 282.262 346.671 282.354 346.449 282.653 345.735C282.904 345.138 283.259 344.307 283.717 343.257 284.634 341.16 285.969 338.181 287.726 334.452 291.239 326.994 296.456 316.5 303.426 303.975 317.328 278.994 338.396 245.591 367.084 212.055 424.188 145.298 514.275 75 639.994 75 713.572 75 775.153 99.1659 824.941 132.624L948.778 8.78679C960.496-2.92893 979.489-2.92893 991.207 8.78679ZM570.152 387.414 667.405 290.16C658.918 286.826 649.675 285 639.994 285 598.57 285 564.993 318.579 564.993 360 564.993 369.681 566.819 378.924 570.152 387.414ZM711.862 245.705C691.054 232.6 666.397 225 639.994 225 565.434 225 504.993 285.442 504.993 360 504.993 386.403 512.592 411.06 525.698 431.868L449.493 508.074C414.508 476.379 388.045 439.965 369.531 409.35 358.636 391.332 350.66 375.597 345.448 364.467 344.432 362.298 343.523 360.309 342.72 358.512 345.723 352.212 350.093 343.503 355.854 333.15 368.363 310.674 387.237 280.798 412.678 251.057 463.831 191.258 538.744 135 639.994 135 694.879 135 741.841 151.455 781.549 176.016L711.862 245.705Z" fill="#FFFFFF" fill-rule="evenodd"/><path d="M282.219 346.779 277.773 357.699 281.928 368.706 309.995 358.113C282.209 346.803 282.219 346.779 282.219 346.779Z" fill="#FFFFFF"/><path d="M898.204 239.903C911.635 230.199 930.388 233.219 940.093 246.648 959.419 273.394 973.708 298.138 983.2 316.26 987.955 325.335 991.525 332.793 993.943 338.064 995.152 340.701 996.076 342.792 996.715 344.271 997.033 345.012 997.282 345.597 997.459 346.023L997.672 346.536 997.741 346.701 997.765 346.758 997.777 346.794 969.994 358.113 998.053 368.73 998.041 368.76 998.011 368.841 997.924 369.069 997.639 369.798C997.402 370.407 997.066 371.253 996.631 372.321 995.758 374.46 994.489 377.49 992.812 381.285 989.458 388.869 984.457 399.54 977.728 412.272 964.303 437.667 943.798 471.627 915.46 505.731 858.949 573.729 768.787 645 639.994 645 613.813 645 589.087 642.039 565.821 636.684 549.674 632.97 539.596 616.869 543.311 600.723 547.025 584.577 563.126 574.497 579.273 578.211 598.165 582.558 618.379 585 639.994 585 744.247 585 819.082 527.826 869.314 467.382 894.343 437.262 912.643 407.001 924.682 384.231 930.235 373.728 934.414 364.896 937.27 358.512 935.398 354.585 932.995 349.719 930.049 344.097 921.589 327.948 908.77 305.745 891.46 281.79 881.755 268.361 884.776 249.607 898.204 239.903Z" fill="#FFFFFF"/><path d="M998.053 368.73C998.053 368.73 998.062 368.706 969.994 358.113 997.78 346.803 997.777 346.794 997.777 346.794L1002.22 357.699 998.053 368.73Z" fill="#FFFFFF"/></g></svg>