<svg width="597" height="597" xmlns="http://www.w3.org/2000/svg" xmlns:xlink="http://www.w3.org/1999/xlink" xml:space="preserve" overflow="hidden"><g transform="translate(-340 -63)"><path d="M627.45 596.837 567.601 503.386C619.217 460.416 632.121 384.586 594.983 326.584L594.983 326.577C581.465 305.48 562.965 289.529 542.054 278.994L542.054 110.013C542.054 85.5887 522.184 65.7186 497.76 65.7186L133.305 65.7186C108.881 65.7186 89.0108 85.5887 89.0108 110.013L89.0108 612.022C89.0108 636.453 108.881 656.324 133.305 656.324L497.759 656.324C522.183 656.324 542.053 636.454 542.053 612.022L542.053 538.409 593.427 618.627 627.45 596.837ZM569.494 342.906C600.704 391.68 586.451 456.755 537.692 487.972 532.802 491.105 527.685 493.697 522.46 495.955L521.119 496.511C509.51 501.319 497.475 503.868 485.517 504.394 485.165 504.409 484.815 504.413 484.463 504.424 478.796 504.619 473.122 504.353 467.498 503.628 466.983 503.56 466.468 503.443 465.954 503.368 460.694 502.612 455.5 501.458 450.416 499.915 450.019 499.794 449.606 499.713 449.21 499.589 444.014 497.94 438.974 495.82 434.086 493.377 433.454 493.063 432.816 492.765 432.191 492.438 427.391 489.915 422.794 487.023 418.442 483.788 417.893 483.378 417.357 482.95 416.814 482.53 412.465 479.163 408.328 475.468 404.503 471.384 404.122 470.974 403.774 470.529 403.398 470.113 399.498 465.813 395.846 461.209 392.625 456.178L392.625 456.17C392.292 455.65 392.033 455.1 391.71 454.574 390.163 452.064 388.667 449.536 387.356 446.951 387.038 446.326 386.801 445.673 386.497 445.044 385.258 442.475 384.057 439.894 383.044 437.266 382.973 437.083 382.926 436.892 382.857 436.707 368.178 397.947 377.867 353.739 407.426 324.684 407.555 324.558 407.667 324.417 407.797 324.291 409.876 322.268 412.108 320.366 414.38 318.499 414.851 318.112 415.275 317.681 415.754 317.303 418.535 315.097 421.424 313.033 424.412 311.119 428.428 308.548 432.578 306.367 436.786 304.406 438.365 303.674 439.995 303.093 441.603 302.442 444.255 301.365 446.92 300.342 449.621 299.495 451.572 298.885 453.547 298.374 455.527 297.879 457.969 297.266 460.433 296.742 462.914 296.309 464.971 295.95 467.03 295.622 469.104 295.386 471.632 295.101 474.161 294.96 476.694 294.859 478.717 294.777 480.738 294.649 482.767 294.683 484.702 294.719 486.626 294.898 488.554 295.039 490.84 295.204 493.128 295.342 495.406 295.658 497.341 295.925 499.246 296.353 501.161 296.728 503.423 297.17 505.69 297.576 507.93 298.169 509.731 298.646 511.488 299.281 513.263 299.853 515.585 300.601 517.913 301.315 520.194 302.23 539.798 310.085 557.257 323.815 569.494 342.906ZM133.305 95.9973 497.759 95.9973C505.492 95.9973 511.775 102.288 511.775 110.013L511.775 194.44 119.289 194.44 119.289 110.013C119.289 102.288 125.572 95.9973 133.305 95.9973ZM511.775 612.022C511.775 619.755 505.491 626.046 497.759 626.046L133.305 626.046C125.572 626.046 119.289 619.755 119.289 612.022L119.289 224.719 511.775 224.719 511.775 267.868C511.512 267.807 511.245 267.783 510.982 267.724 507.97 267.041 504.92 266.558 501.868 266.08 500.602 265.883 499.346 265.595 498.077 265.436 467.697 261.552 435.852 267.844 408.09 285.617 404.242 288.086 400.52 290.745 396.936 293.584 396.309 294.08 395.759 294.639 395.144 295.145 392.227 297.537 389.37 299.983 386.682 302.589 386.52 302.748 386.38 302.921 386.22 303.079 367.601 321.311 354.614 344.529 348.908 370.577 343.146 396.832 345.281 423.579 354.765 448.089L354.767 448.095C356.201 451.799 357.853 455.434 359.621 459.025 359.872 459.537 360.062 460.069 360.321 460.579 362.393 464.667 364.668 468.649 367.138 472.509 370.665 478.019 374.654 483.101 378.848 487.97 379.64 488.888 380.415 489.813 381.228 490.704 385.483 495.385 389.999 499.769 394.829 503.775 395.288 504.155 395.774 504.49 396.237 504.864 400.946 508.658 405.906 512.128 411.085 515.25 411.655 515.594 412.201 515.971 412.775 516.306 418.136 519.435 423.726 522.175 429.514 524.548 430.505 524.955 431.51 525.299 432.51 525.683 437.669 527.657 442.958 529.349 448.397 530.699 449.2 530.899 449.98 531.161 450.787 531.346 451.228 531.448 451.647 531.602 452.09 531.7 457.825 532.957 463.584 533.722 469.343 534.235 470.363 534.324 471.385 534.337 472.408 534.401 475.379 534.598 478.354 534.886 481.319 534.886 483.471 534.886 485.587 534.531 487.731 534.428 489.826 534.328 491.919 534.178 494.007 533.98 498.945 533.508 503.818 532.735 508.669 531.72 509.702 531.502 510.745 531.483 511.775 531.241L511.775 612.022Z" fill="#93B7D6" transform="matrix(1.00001 0 0 1 280.028 0.366199)"/><path d="M144.522 115.867 205.079 115.867 205.079 176.425 144.522 176.425ZM144.522 268.035 315.534 268.035 315.534 316.252 144.522 316.252ZM144.522 404.653 315.534 404.653 315.534 452.87 144.522 452.87ZM144.522 541.941 191.398 541.941 191.398 588.818 144.522 588.818ZM241.247 541.941 288.124 541.941 288.124 588.818 241.247 588.818ZM337.971 541.941 384.848 541.941 384.848 588.818 337.971 588.818ZM434.696 541.057 481.574 541.057 481.574 587.933 434.696 587.933Z" fill="#93B7D6" transform="matrix(1.00001 0 0 1 280.028 0.366199)"/></g></svg>