<svg width="720" height="720" xmlns="http://www.w3.org/2000/svg" xmlns:xlink="http://www.w3.org/1999/xlink" xml:space="preserve" overflow="hidden"><defs><clipPath id="clip0"><rect x="186" y="-367" width="720" height="720"/></clipPath></defs><g clip-path="url(#clip0)" transform="translate(-186 367)"><path d="M545.997-142C471.438-142 410.996-81.558 410.996-7 410.996 67.559 471.438 128 545.997 128 620.556 128 680.997 67.559 680.997-7 680.997-81.558 620.556-142 545.997-142ZM470.996-7C470.996-48.421 504.576-82 545.997-82 587.418-82 620.997-48.421 620.997-7 620.997 34.421 587.418 68 545.997 68 504.576 68 470.996 34.421 470.996-7Z" fill="#93B7D6" fill-rule="evenodd"/><path d="M545.994-292C420.275-292 330.188-221.702 273.084-154.945 244.396-121.409 223.328-88.006 209.426-63.025 202.456-50.5 197.239-40.006 193.726-32.548 191.969-28.819 190.634-25.84 189.717-23.743 189.259-22.693 188.904-21.862 188.653-21.265L188.354-20.551 188.262-20.329 188.231-20.251 188.219-20.221 183.773-9.30099 187.937 1.73001 187.949 1.76001 187.979 1.841 188.066 2.069 188.35 2.798C188.589 3.40701 188.925 4.25299 189.361 5.32101 190.232 7.45999 191.501 10.49 193.18 14.285 196.534 21.869 201.533 32.54 208.264 45.272 221.688 70.667 242.191 104.627 270.531 138.731 327.04 206.729 417.204 278 545.994 278 674.787 278 764.949 206.729 821.46 138.731 849.798 104.627 870.303 70.667 883.728 45.272 890.457 32.54 895.458 21.869 898.812 14.285 900.489 10.49 901.758 7.45999 902.631 5.32101 903.066 4.25299 903.402 3.40701 903.639 2.798L903.924 2.069 904.011 1.841 904.041 1.76001 904.053 1.73001 908.22-9.30099 903.771-20.221 903.729-20.329 903.636-20.551 903.336-21.265C903.087-21.862 902.733-22.693 902.274-23.743 901.356-25.84 900.021-28.819 898.263-32.548 894.75-40.006 889.533-50.5 882.564-63.025 868.662-88.006 847.593-121.409 818.907-154.945 761.802-221.702 671.715-292 545.994-292ZM875.994-8.88699C904.062 1.70599 904.053 1.73001 904.053 1.73001L875.994-8.88699ZM903.771-20.221C903.771-20.221 903.78-20.197 875.994-8.88699L903.771-20.221ZM215.995-8.88699C188.209-20.197 188.219-20.221 188.219-20.221L215.995-8.88699ZM187.937 1.73001C187.937 1.73001 187.928 1.70599 215.995-8.88699L187.937 1.73001ZM261.308 17.231C255.756 6.728 251.577-2.104 248.72-8.48801 251.723-14.788 256.093-23.497 261.854-33.85 274.363-56.326 293.237-86.202 318.678-115.943 369.831-175.742 444.744-232 545.994-232 647.247-232 722.16-175.742 773.313-115.943 798.753-86.202 817.626-56.326 830.136-33.85 835.899-23.497 840.267-14.788 843.27-8.48801 840.414-2.104 836.235 6.728 830.682 17.231 818.643 40.001 800.343 70.262 775.314 100.382 725.082 160.826 650.247 218 545.994 218 441.743 218 366.907 160.826 316.677 100.382 291.647 70.262 273.346 40.001 261.308 17.231Z" fill="#93B7D6" fill-rule="evenodd"/></g></svg>