<svg width="720" height="720" xmlns="http://www.w3.org/2000/svg" xmlns:xlink="http://www.w3.org/1999/xlink" xml:space="preserve" overflow="hidden"><defs><clipPath id="clip0"><rect x="280" y="0" width="720" height="720"/></clipPath></defs><g clip-path="url(#clip0)" transform="translate(-280 0)"><path d="M639.997 225C565.438 225 504.996 285.442 504.996 360 504.996 434.559 565.438 495 639.997 495 714.556 495 774.997 434.559 774.997 360 774.997 285.442 714.556 225 639.997 225ZM564.996 360C564.996 318.579 598.576 285 639.997 285 681.418 285 714.997 318.579 714.997 360 714.997 401.421 681.418 435 639.997 435 598.576 435 564.996 401.421 564.996 360Z" fill="#FFFFFF" fill-rule="evenodd"/><path d="M639.994 75C514.275 75 424.188 145.298 367.084 212.055 338.396 245.591 317.328 278.994 303.426 303.975 296.456 316.5 291.239 326.994 287.726 334.452 285.969 338.181 284.634 341.16 283.717 343.257 283.259 344.307 282.904 345.138 282.653 345.735L282.354 346.449 282.262 346.671 282.231 346.749 282.219 346.779 277.773 357.699 281.937 368.73 281.949 368.76 281.979 368.841 282.066 369.069 282.35 369.798C282.589 370.407 282.925 371.253 283.361 372.321 284.232 374.46 285.501 377.49 287.18 381.285 290.534 388.869 295.533 399.54 302.264 412.272 315.688 437.667 336.191 471.627 364.531 505.731 421.04 573.729 511.204 645 639.994 645 768.787 645 858.949 573.729 915.46 505.731 943.798 471.627 964.303 437.667 977.728 412.272 984.457 399.54 989.458 388.869 992.812 381.285 994.489 377.49 995.758 374.46 996.631 372.321 997.066 371.253 997.402 370.407 997.639 369.798L997.924 369.069 998.011 368.841 998.041 368.76 998.053 368.73 1002.22 357.699 997.771 346.779 997.729 346.671 997.636 346.449 997.336 345.735C997.087 345.138 996.733 344.307 996.274 343.257 995.356 341.16 994.021 338.181 992.263 334.452 988.75 326.994 983.533 316.5 976.564 303.975 962.662 278.994 941.593 245.591 912.907 212.055 855.802 145.298 765.715 75 639.994 75ZM969.994 358.113C998.062 368.706 998.053 368.73 998.053 368.73L969.994 358.113ZM997.771 346.779C997.771 346.779 997.78 346.803 969.994 358.113L997.771 346.779ZM309.995 358.113C282.209 346.803 282.219 346.779 282.219 346.779L309.995 358.113ZM281.937 368.73C281.937 368.73 281.928 368.706 309.995 358.113L281.937 368.73ZM355.308 384.231C349.756 373.728 345.577 364.896 342.72 358.512 345.723 352.212 350.093 343.503 355.854 333.15 368.363 310.674 387.237 280.798 412.678 251.057 463.831 191.258 538.744 135 639.994 135 741.247 135 816.16 191.258 867.313 251.057 892.753 280.798 911.626 310.674 924.136 333.15 929.899 343.503 934.267 352.212 937.27 358.512 934.414 364.896 930.235 373.728 924.682 384.231 912.643 407.001 894.343 437.262 869.314 467.382 819.082 527.826 744.247 585 639.994 585 535.743 585 460.907 527.826 410.677 467.382 385.647 437.262 367.346 407.001 355.308 384.231Z" fill="#FFFFFF" fill-rule="evenodd"/></g></svg>